<svg xmlns="http://www.w3.org/2000/svg" viewBox="0 0 24 24" width="24" height="24"><path fill="#FB542B" d="M22.3 7.059l-1.638-4.6a.74.74 0 0 0-.473-.46L12.36.015a.794.794 0 0 0-.722 0L3.81 2.001a.74.74 0 0 0-.474.459L1.7 7.059a5.278 5.278 0 0 0 1.573 5.653l8.137 7.248a.768.768 0 0 0 1.027 0l8.17-7.21a5.279 5.279 0 0 0 1.694-5.691zM12 13.694l-2.423-2.65.754-1.688L12 10.58l1.669-1.225.754 1.689zm6.786-5.232l-.95 2.671-1.975 2.164-2.088-2.282.626-1.407H7.6l.628 1.407-2.088 2.282-1.976-2.164-.95-2.671 1.103-3.1 7.684-1.81 7.682 1.81z"/></svg>
