<svg xmlns="http://www.w3.org/2000/svg" height="40" viewBox="0 -960 960 960" width="40"><path d="M522.305-497.273v-148.64q0-17.296-11.482-28.8-11.481-11.505-28.744-11.505-17.262 0-28.823 11.505-11.56 11.504-11.56 28.8v164.261q0 8.739 2.992 16.322 2.993 7.583 8.979 14.316L586.13-315.217q12.217 12.406 29.283 12.072 17.065-.333 29.37-12.072 12.304-11.739 12.304-29.087t-12.304-29.653L522.305-497.273Zm-42.253 433.1q-86.154 0-161.93-32.69-75.777-32.69-132.165-89.064Q129.57-242.3 96.871-318.058q-32.698-75.758-32.698-161.901 0-86.143 32.772-161.962 32.772-75.819 89.044-132.09 56.271-56.272 132.055-89.232Q393.828-896.204 480-896.204q86.172 0 161.956 32.961 75.784 32.96 132.055 89.232 56.272 56.271 89.232 132.055Q896.204-566.172 896.204-480q0 86.172-32.961 161.956-32.96 75.784-89.232 132.055-56.271 56.272-132.038 89.044-75.768 32.772-161.921 32.772ZM480-480Zm-.193 327.681q135.41 0 231.642-95.761 96.232-95.76 96.232-231.732 0-135.971-96.18-231.92-96.181-95.949-231.496-95.949-135.599 0-231.643 95.902Q152.319-615.876 152.319-480q0 136.16 96.038 231.92 96.039 95.761 231.45 95.761Z"/></svg>